<?xml version="1.0" encoding="UTF-8" standalone="no"?>
<!-- Created with Inkscape (http://www.inkscape.org/) -->

<svg
   width="42.989906mm"
   height="31.315271mm"
   viewBox="0 0 42.989906 31.315271"
   version="1.1"
   id="svg1"
   inkscape:version="1.3.1 (9b9bdc1480, 2023-11-25, custom)"
   sodipodi:docname="dragonfly-logo-rgb.svg"
   xmlns:inkscape="http://www.inkscape.org/namespaces/inkscape"
   xmlns:sodipodi="http://sodipodi.sourceforge.net/DTD/sodipodi-0.dtd"
   xmlns="http://www.w3.org/2000/svg"
   xmlns:svg="http://www.w3.org/2000/svg">
  <sodipodi:namedview
     id="namedview1"
     pagecolor="#505050"
     bordercolor="#eeeeee"
     borderopacity="1"
     inkscape:showpageshadow="0"
     inkscape:pageopacity="0"
     inkscape:pagecheckerboard="0"
     inkscape:deskcolor="#505050"
     inkscape:document-units="mm"
     inkscape:zoom="0.23464073"
     inkscape:cx="453.8854"
     inkscape:cy="635.01337"
     inkscape:window-width="1296"
     inkscape:window-height="704"
     inkscape:window-x="0"
     inkscape:window-y="0"
     inkscape:window-maximized="1"
     inkscape:current-layer="layer1" />
  <defs
     id="defs1">
    <clipPath
       clipPathUnits="userSpaceOnUse"
       id="clipPath1">
      <rect
         style="fill:#000000"
         id="rect2"
         width="166.60313"
         height="122.13452"
         x="-3.28547"
         y="-3.0456545" />
    </clipPath>
  </defs>
  <g
     inkscape:label="Layer 1"
     inkscape:groupmode="layer"
     id="layer1"
     transform="translate(-0.60598064,-0.44793047)">
    <g
       id="Page-1"
       stroke="none"
       stroke-width="1"
       fill="none"
       fill-rule="evenodd"
       clip-path="url(#clipPath1)"
       transform="matrix(0.26458333,0,0,0.26458333,0.38475696,0.25427267)">
      <g
         id="Dragonfly-logo-RGB"
         transform="translate(-49,-50)">
        <g
           id="logo"
           transform="translate(49.836121,50.731935)">
          <path
             d="m 397.84188,137.88406 c 2.758,0 4.896,-0.711 6.415,-2.137 1.518,-1.425 2.277,-3.43599 2.277,-6.033 0,-2.573 -0.759,-4.57199 -2.277,-5.99799 -1.519,-1.425 -3.645,-2.137 -6.379,-2.137 h -3.79 v 16.30499 z m -6.727,2.505 c -0.383,-0.394 -0.574,-0.859 -0.574,-1.392 v -18.49699 c 0,-0.602 0.185,-1.08801 0.556,-1.459 0.371,-0.372 0.823,-0.557 1.357,-0.557 h 5.492 c 1.924,0 3.64,0.256 5.147,0.766 1.506,0.50999 2.781,1.24499 3.824,2.20599 1.043,0.96301 1.843,2.134 2.399,3.512 0.556,1.38001 0.834,2.95001 0.834,4.71201 0,1.76099 -0.284,3.33799 -0.852,4.72799 -0.568,1.39101 -1.385,2.573 -2.451,3.547 -1.066,0.973 -2.364,1.72 -3.894,2.242 -1.53,0.521 -3.256,0.782 -5.18,0.782 h -5.25 c -0.557,0 -1.026,-0.197 -1.408,-0.59 z"
             id="Fill-1"
             fill="#3a3b39" />
          <path
             d="m 426.17788,138.89306 c 0.742,0 1.431,-0.11 2.069,-0.33 0.638,-0.221 1.182,-0.534 1.634,-0.939 0.452,-0.404 0.805,-0.887 1.061,-1.443 0.254,-0.557 0.382,-1.159 0.382,-1.807 v -1.287 l -0.939,0.035 c -2.457,0.093 -4.3,0.389 -5.528,0.887 -1.229,0.498 -1.842,1.316 -1.842,2.45 0,0.742 0.277,1.333 0.834,1.774 0.556,0.44101 1.332,0.66 2.329,0.66 z m 5.146,-8.309 c 0,-1.275 -0.354,-2.248 -1.06,-2.92099 -0.708,-0.672 -1.734,-1.00801 -3.077,-1.00801 -1.275,0 -2.295,0.28401 -3.06,0.85101 -0.765,0.56899 -1.345,1.23499 -1.738,1.99899 -0.441,-0.021 -0.795,-0.085 -1.061,-0.19 -0.266,-0.104 -0.51,-0.27199 -0.73,-0.505 -0.22,-0.23 -0.331,-0.557 -0.331,-0.97199 0,-0.39401 0.151,-0.83 0.452,-1.30501 0.301,-0.47399 0.753,-0.91 1.357,-1.30399 0.602,-0.394 1.349,-0.723 2.242,-0.991 0.892,-0.266 1.929,-0.399 3.112,-0.399 2.387,0 4.201,0.579 5.441,1.73899 1.24,1.15901 1.86,2.803 1.86,4.935 v 10.258 c 0,0.092 -0.127,0.18 -0.382,0.26 -0.256,0.081 -0.545,0.122 -0.869,0.122 -0.604,0 -1.102,-0.191 -1.496,-0.57399 -0.394,-0.38201 -0.603,-1.09401 -0.626,-2.137 -0.625,0.90299 -1.46,1.61699 -2.503,2.137 -1.042,0.52099 -2.214,0.78199 -3.511,0.78199 -1.808,0 -3.211,-0.434 -4.207,-1.302 -0.997,-0.87 -1.495,-2.023 -1.495,-3.46 0,-1.947 0.922,-3.361 2.763,-4.243 1.843,-0.88 4.665,-1.354 8.467,-1.425 h 0.452 z"
             id="Fill-2"
             fill="#3a3b39" />
          <path
             d="m 445.43988,127.07206 c -0.534,0 -0.916,-0.10899 -1.148,-0.33 -0.231,-0.22 -0.347,-0.53799 -0.347,-0.956 v -0.244 c 0,-0.41699 0.116,-0.735 0.347,-0.95599 0.232,-0.22 0.614,-0.32901 1.148,-0.32901 h 1.217 v -2.57399 c 0,-0.60201 0.138,-1.026 0.417,-1.268 0.278,-0.24501 0.649,-0.366 1.112,-0.366 h 0.348 c 0.464,0 0.829,0.10999 1.095,0.32999 0.266,0.22101 0.4,0.655 0.4,1.30401 v 2.57399 h 3.79 c 0.533,0 0.91,0.104 1.13,0.31301 0.22,0.20699 0.33,0.51999 0.33,0.93699 v 0.244 c 0,0.44101 -0.116,0.771 -0.348,0.991 -0.232,0.22101 -0.614,0.33 -1.147,0.33 h -3.789 v 8.448 c 0,1.043 0.167,1.821 0.504,2.331 0.335,0.51 0.909,0.764 1.72,0.764 0.534,0 0.997,-0.11 1.391,-0.33 0.394,-0.22 0.719,-0.505 0.974,-0.852 0.023,-0.023 0.087,-0.011 0.191,0.034 0.104,0.047 0.214,0.128 0.331,0.244 0.115,0.116 0.219,0.273 0.313,0.47 0.091,0.197 0.138,0.434 0.138,0.712 0,0.649 -0.336,1.235 -1.008,1.756 -0.673,0.522 -1.634,0.783 -2.886,0.783 -1.738,0 -3.007,-0.47 -3.806,-1.409 -0.801,-0.939 -1.2,-2.312 -1.2,-4.119 v -8.832 h -1.217"
             id="Fill-3"
             fill="#3a3b39" />
          <path
             d="m 470.57688,138.89306 c 0.741,0 1.431,-0.11 2.068,-0.33 0.638,-0.221 1.183,-0.534 1.634,-0.939 0.452,-0.404 0.806,-0.887 1.062,-1.443 0.254,-0.557 0.381,-1.159 0.381,-1.807 v -1.287 l -0.939,0.035 c -2.457,0.093 -4.299,0.389 -5.527,0.887 -1.229,0.498 -1.843,1.316 -1.843,2.45 0,0.742 0.278,1.333 0.834,1.774 0.556,0.44101 1.333,0.66 2.33,0.66 z m 5.145,-8.309 c 0,-1.275 -0.353,-2.248 -1.06,-2.92099 -0.707,-0.672 -1.733,-1.00801 -3.077,-1.00801 -1.275,0 -2.294,0.28401 -3.059,0.85101 -0.765,0.56899 -1.345,1.23499 -1.739,1.99899 -0.441,-0.021 -0.794,-0.085 -1.06,-0.19 -0.267,-0.104 -0.511,-0.27199 -0.73,-0.505 -0.221,-0.23 -0.331,-0.557 -0.331,-0.97199 0,-0.39401 0.151,-0.83 0.452,-1.30501 0.301,-0.47399 0.753,-0.91 1.356,-1.30399 0.603,-0.394 1.35,-0.723 2.243,-0.991 0.892,-0.266 1.929,-0.399 3.111,-0.399 2.387,0 4.202,0.579 5.442,1.73899 1.239,1.15901 1.86,2.803 1.86,4.935 v 10.258 c 0,0.092 -0.128,0.18 -0.383,0.26 -0.255,0.081 -0.545,0.122 -0.869,0.122 -0.603,0 -1.101,-0.191 -1.495,-0.57399 -0.395,-0.38201 -0.603,-1.09401 -0.626,-2.137 -0.625,0.90299 -1.46,1.61699 -2.503,2.137 -1.043,0.52099 -2.214,0.78199 -3.512,0.78199 -1.808,0 -3.211,-0.434 -4.207,-1.302 -0.996,-0.87 -1.494,-2.023 -1.494,-3.46 0,-1.947 0.921,-3.361 2.763,-4.243 1.843,-0.88 4.665,-1.354 8.467,-1.425 h 0.451 z"
             id="Fill-4"
             fill="#3a3b39" />
          <path
             d="m 510.45388,141.43206 c -1.343,0 -2.542,-0.146 -3.597,-0.436 -1.055,-0.289 -1.942,-0.66 -2.66,-1.112 -0.719,-0.451 -1.263,-0.939 -1.634,-1.461 -0.371,-0.52 -0.556,-1.013 -0.556,-1.478 0,-0.299 0.08,-0.572 0.243,-0.816 0.162,-0.244 0.342,-0.452 0.539,-0.626 0.197,-0.173 0.382,-0.306 0.556,-0.4 0.174,-0.091 0.273,-0.115 0.296,-0.069 0.648,0.951 1.552,1.762 2.712,2.433 1.158,0.673 2.515,1.008 4.067,1.008 1.575,0 2.787,-0.306 3.635,-0.91999 0.845,-0.61501 1.269,-1.47801 1.269,-2.59001 0,-0.626 -0.151,-1.14799 -0.454,-1.565 -0.3,-0.418 -0.711,-0.764 -1.232,-1.044 -0.522,-0.27699 -1.124,-0.508 -1.808,-0.695 -0.686,-0.185 -1.396,-0.358 -2.14,-0.521 -0.858,-0.209 -1.715,-0.452 -2.573,-0.731 -0.857,-0.278 -1.616,-0.66 -2.276,-1.146 -0.661,-0.488 -1.2,-1.107 -1.618,-1.861 -0.416,-0.752 -0.625,-1.69699 -0.625,-2.83199 0,-0.951 0.196,-1.826 0.591,-2.62601 0.394,-0.79899 0.95,-1.48899 1.668,-2.06999 0.719,-0.57901 1.57,-1.03 2.556,-1.354 0.985,-0.325 2.082,-0.488 3.287,-0.488 1.252,0 2.356,0.134 3.318,0.39999 0.963,0.268 1.767,0.59701 2.417,0.991 0.649,0.39401 1.141,0.82301 1.477,1.286 0.337,0.464 0.505,0.90401 0.505,1.321 0,0.325 -0.081,0.614 -0.242,0.87 -0.165,0.256 -0.35,0.47 -0.559,0.64301 -0.209,0.173 -0.397,0.301 -0.572,0.382 -0.175,0.082 -0.273,0.11099 -0.296,0.088 -0.603,-0.857 -1.424,-1.57699 -2.467,-2.15599 -1.044,-0.57901 -2.225,-0.869 -3.548,-0.869 -1.413,0 -2.544,0.312 -3.389,0.93799 -0.847,0.62601 -1.269,1.46001 -1.269,2.50401 0,0.626 0.133,1.129 0.4,1.513 0.266,0.38199 0.631,0.69499 1.094,0.937 0.464,0.244 1.02,0.44799 1.67,0.60899 0.649,0.16201 1.366,0.33701 2.154,0.522 0.952,0.209 1.878,0.475 2.783,0.799 0.902,0.325 1.703,0.743 2.4,1.252 0.693,0.51 1.256,1.141 1.686,1.895 0.428,0.753 0.643,1.675 0.643,2.764 0,2.086 -0.747,3.726 -2.245,4.92 -1.494,1.194 -3.561,1.791 -6.206,1.791"
             id="Fill-5"
             fill="#3a3b39" />
          <path
             d="m 536.91388,141.43206 c -1.252,0 -2.412,-0.22 -3.477,-0.661 -1.067,-0.44 -1.988,-1.049 -2.763,-1.826 -0.778,-0.776 -1.38,-1.708 -1.809,-2.799 -0.43,-1.089 -0.643,-2.27 -0.643,-3.546 0,-1.274 0.22,-2.445 0.661,-3.512 0.439,-1.065 1.042,-1.98699 1.807,-2.763 0.764,-0.77599 1.68,-1.38499 2.747,-1.82599 1.065,-0.43901 2.225,-0.66 3.477,-0.66 1.252,0 2.324,0.16799 3.216,0.503 0.892,0.33699 1.634,0.743 2.224,1.217 0.593,0.476 1.027,0.97999 1.305,1.51299 0.277,0.533 0.417,0.996 0.417,1.39 0,0.348 -0.104,0.633 -0.313,0.853 -0.209,0.221 -0.434,0.387 -0.678,0.503 -0.242,0.117 -0.475,0.187 -0.695,0.209 -0.221,0.024 -0.342,0.012 -0.365,-0.035 -0.394,-0.926 -0.973,-1.703 -1.739,-2.32899 -0.764,-0.62601 -1.866,-0.93901 -3.303,-0.93901 -0.788,0 -1.518,0.146 -2.19,0.435 -0.673,0.29001 -1.252,0.696 -1.738,1.217 -0.486,0.522 -0.87,1.141 -1.148,1.86 -0.278,0.71801 -0.417,1.508 -0.417,2.364 0,0.859 0.139,1.651 0.417,2.382 0.278,0.73 0.662,1.356 1.148,1.878 0.486,0.521 1.065,0.932 1.738,1.233 0.672,0.301 1.402,0.453 2.19,0.453 1.413,0 2.509,-0.313 3.286,-0.939 0.776,-0.626 1.362,-1.402 1.756,-2.329 0.023,-0.047 0.144,-0.058 0.365,-0.036 0.22,0.024 0.453,0.088 0.695,0.192 0.244,0.105 0.469,0.273 0.678,0.503 0.209,0.233 0.313,0.534 0.313,0.904 0,0.372 -0.14,0.825 -0.417,1.35701 -0.278,0.53299 -0.712,1.03799 -1.305,1.51199 -0.59,0.475 -1.337,0.882 -2.241,1.217 -0.904,0.337 -1.971,0.505 -3.199,0.505"
             id="Fill-6"
             fill="#3a3b39" />
          <path
             d="m 554.69688,140.77106 c -0.29,-0.231 -0.434,-0.66 -0.434,-1.286 v -13.734 c 0,-0.62599 0.144,-1.06 0.434,-1.304 0.289,-0.24299 0.666,-0.36499 1.131,-0.36499 h 0.346 c 0.465,0 0.835,0.116 1.113,0.348 0.279,0.23199 0.417,0.673 0.417,1.32099 v 13.734 c 0,0.626 -0.138,1.055 -0.417,1.286 -0.278,0.232 -0.648,0.348 -1.113,0.348 h -0.346 c -0.465,0 -0.842,-0.116 -1.131,-0.348 z m 1.304,-20.09599 c -0.65,0 -1.153,-0.16801 -1.513,-0.50501 -0.36,-0.33399 -0.538,-0.80399 -0.538,-1.40799 0,-0.626 0.178,-1.10601 0.538,-1.442 0.36,-0.33701 0.875,-0.505 1.548,-0.505 1.343,0 2.016,0.649 2.016,1.947 0,1.276 -0.685,1.913 -2.051,1.913 z"
             id="Fill-7"
             fill="#3a3b39" />
          <path
             d="m 581.31288,131.21006 c -0.094,-1.461 -0.557,-2.62 -1.392,-3.477 -0.834,-0.85799 -1.947,-1.28699 -3.337,-1.28699 -0.695,0 -1.339,0.116 -1.93,0.348 -0.591,0.23299 -1.117,0.562 -1.582,0.99199 -0.464,0.429 -0.846,0.932 -1.148,1.511 -0.301,0.58 -0.51,1.216 -0.626,1.913 z m -9.458,4.433 c 0.302,0.638 0.695,1.181 1.182,1.634 0.488,0.451 1.067,0.804 1.738,1.06 0.673,0.256 1.404,0.382 2.191,0.382 0.742,0 1.39,-0.074 1.947,-0.225 0.557,-0.152 1.044,-0.354 1.461,-0.61 0.418,-0.254 0.776,-0.55 1.077,-0.886 0.301,-0.335 0.557,-0.689 0.766,-1.061 0.022,-0.021 0.126,-0.01 0.313,0.036 0.185,0.047 0.387,0.128 0.607,0.244 0.221,0.116 0.423,0.289 0.61,0.52 0.185,0.232 0.277,0.533 0.277,0.905 0,0.37 -0.156,0.77601 -0.469,1.217 -0.313,0.441 -0.778,0.851 -1.39,1.233 -0.615,0.382 -1.363,0.702 -2.244,0.956 -0.88,0.256 -1.889,0.384 -3.024,0.384 -1.321,0 -2.527,-0.209 -3.616,-0.626 -1.089,-0.417 -2.016,-1.008 -2.782,-1.774 -0.764,-0.764 -1.361,-1.686 -1.791,-2.763 -0.429,-1.079 -0.642,-2.267 -0.642,-3.564 0,-1.274 0.213,-2.452 0.642,-3.529 0.43,-1.079 1.027,-2.01099 1.791,-2.79899 0.766,-0.788 1.669,-1.40901 2.713,-1.86 1.043,-0.452 2.177,-0.678 3.406,-0.678 1.205,0 2.3,0.202 3.287,0.60799 0.984,0.405 1.831,0.979 2.537,1.72101 0.707,0.742 1.252,1.629 1.634,2.65899 0.382,1.032 0.574,2.175 0.574,3.425 v 0.279 c 0,0.37 -0.075,0.631 -0.225,0.781 -0.152,0.152 -0.424,0.227 -0.818,0.227 h -12.309 c 0.071,0.764 0.256,1.466 0.557,2.104 z"
             id="Fill-8"
             fill="#3a3b39" />
          <path
             d="m 598.20888,126.79407 c 0.579,-0.88201 1.333,-1.593 2.26,-2.13901 0.928,-0.54299 2.028,-0.81599 3.304,-0.81599 1.112,0 2.073,0.17999 2.884,0.539 0.812,0.36 1.485,0.85799 2.018,1.494 0.532,0.63799 0.926,1.392 1.182,2.25999 0.254,0.87 0.382,1.826 0.382,2.87 v 8.483 c 0,0.626 -0.145,1.055 -0.435,1.286 -0.289,0.232 -0.654,0.348 -1.095,0.348 h -0.382 c -0.465,0 -0.835,-0.116 -1.113,-0.348 -0.277,-0.231 -0.417,-0.66 -0.417,-1.286 v -8.066 c 0,-1.414 -0.337,-2.528 -1.008,-3.339 -0.673,-0.811 -1.622,-1.21699 -2.851,-1.21699 -1.112,0 -2.07,0.268 -2.869,0.8 -0.799,0.53299 -1.407,1.23999 -1.824,2.12199 v 9.7 c 0,0.626 -0.147,1.055 -0.436,1.286 -0.29,0.232 -0.655,0.348 -1.094,0.348 h -0.384 c -0.463,0 -0.835,-0.116 -1.112,-0.348 -0.278,-0.231 -0.418,-0.66 -0.418,-1.286 v -15.02 c 0,-0.047 0.123,-0.12299 0.366,-0.22699 0.244,-0.104 0.538,-0.156 0.887,-0.156 0.509,0 0.984,0.18 1.425,0.54 0.441,0.35799 0.683,1.083 0.73,2.172"
             id="Fill-9"
             fill="#3a3b39" />
          <path
             d="m 628.94388,141.43206 c -1.252,0 -2.412,-0.22 -3.477,-0.661 -1.067,-0.44 -1.988,-1.049 -2.763,-1.826 -0.778,-0.776 -1.38,-1.708 -1.809,-2.799 -0.43,-1.089 -0.643,-2.27 -0.643,-3.546 0,-1.274 0.22,-2.445 0.661,-3.512 0.439,-1.065 1.042,-1.98699 1.807,-2.763 0.764,-0.77599 1.68,-1.38499 2.747,-1.82599 1.065,-0.43901 2.225,-0.66 3.477,-0.66 1.252,0 2.324,0.16799 3.216,0.503 0.892,0.33699 1.634,0.743 2.225,1.217 0.592,0.476 1.026,0.97999 1.304,1.51299 0.277,0.533 0.417,0.996 0.417,1.39 0,0.348 -0.104,0.633 -0.313,0.853 -0.209,0.221 -0.434,0.387 -0.678,0.503 -0.242,0.117 -0.475,0.187 -0.695,0.209 -0.221,0.024 -0.342,0.012 -0.365,-0.035 -0.394,-0.926 -0.973,-1.703 -1.739,-2.32899 -0.764,-0.62601 -1.866,-0.93901 -3.303,-0.93901 -0.788,0 -1.518,0.146 -2.19,0.435 -0.673,0.29001 -1.252,0.696 -1.738,1.217 -0.486,0.522 -0.87,1.141 -1.148,1.86 -0.278,0.71801 -0.417,1.508 -0.417,2.364 0,0.859 0.139,1.651 0.417,2.382 0.278,0.73 0.662,1.356 1.148,1.878 0.486,0.521 1.065,0.932 1.738,1.233 0.672,0.301 1.402,0.453 2.19,0.453 1.413,0 2.509,-0.313 3.286,-0.939 0.776,-0.626 1.362,-1.402 1.756,-2.329 0.023,-0.047 0.144,-0.058 0.365,-0.036 0.22,0.024 0.453,0.088 0.695,0.192 0.244,0.105 0.469,0.273 0.678,0.503 0.209,0.233 0.313,0.534 0.313,0.904 0,0.372 -0.14,0.825 -0.417,1.35701 -0.278,0.53299 -0.712,1.03799 -1.304,1.51199 -0.591,0.475 -1.338,0.882 -2.242,1.217 -0.904,0.337 -1.971,0.505 -3.199,0.505"
             id="Fill-10"
             fill="#3a3b39" />
          <path
             d="m 658.39188,131.21006 c -0.094,-1.461 -0.557,-2.62 -1.391,-3.477 -0.835,-0.85799 -1.947,-1.28699 -3.337,-1.28699 -0.695,0 -1.34,0.116 -1.931,0.348 -0.59,0.23299 -1.117,0.562 -1.582,0.99199 -0.464,0.429 -0.846,0.932 -1.147,1.511 -0.302,0.58 -0.51,1.216 -0.626,1.913 z m -9.457,4.433 c 0.301,0.638 0.695,1.181 1.181,1.634 0.488,0.451 1.067,0.804 1.738,1.06 0.674,0.256 1.404,0.382 2.192,0.382 0.742,0 1.39,-0.074 1.947,-0.225 0.557,-0.152 1.043,-0.354 1.46,-0.61 0.418,-0.254 0.776,-0.55 1.077,-0.886 0.302,-0.335 0.558,-0.689 0.766,-1.061 0.022,-0.021 0.126,-0.01 0.313,0.036 0.185,0.047 0.387,0.128 0.608,0.244 0.22,0.116 0.422,0.289 0.609,0.52 0.185,0.232 0.278,0.533 0.278,0.905 0,0.37 -0.157,0.77601 -0.47,1.217 -0.313,0.441 -0.777,0.851 -1.39,1.233 -0.614,0.382 -1.363,0.702 -2.243,0.956 -0.88,0.256 -1.89,0.384 -3.024,0.384 -1.321,0 -2.528,-0.209 -3.617,-0.626 -1.089,-0.417 -2.016,-1.008 -2.782,-1.774 -0.764,-0.764 -1.361,-1.686 -1.79,-2.763 -0.429,-1.079 -0.643,-2.267 -0.643,-3.564 0,-1.274 0.214,-2.452 0.643,-3.529 0.429,-1.079 1.026,-2.01099 1.79,-2.79899 0.766,-0.788 1.67,-1.40901 2.713,-1.86 1.043,-0.452 2.178,-0.678 3.406,-0.678 1.205,0 2.301,0.202 3.287,0.60799 0.984,0.405 1.831,0.979 2.538,1.72101 0.707,0.742 1.252,1.629 1.634,2.65899 0.382,1.032 0.574,2.175 0.574,3.425 v 0.279 c 0,0.37 -0.076,0.631 -0.226,0.781 -0.151,0.152 -0.424,0.227 -0.818,0.227 h -12.308 c 0.07,0.764 0.255,1.466 0.557,2.104 z"
             id="Fill-11"
             fill="#3a3b39" />
          <path
             d="m 200.93188,94.825065 h 3.073 c 11.296,0 16.031,-3.821 16.031,-14.12 0,-10.217 -4.735,-14.038 -16.031,-14.038 h -3.073 z m -13.456,-39.039 h 16.529 c 22.842,0 29.57,11.13 29.57,24.919 0,13.787 -6.728,24.917005 -29.57,24.917005 -1.578,0 -16.529,0 -16.529,0 z"
             id="Fill-12"
             fill="#3a3b39" />
          <path
             d="m 262.55888,66.501065 v 10.3 h 9.967 c 4.486,0 6.811,-2.077 6.811,-5.15 0,-3.156 -2.325,-5.15 -6.811,-5.15 z m 28.241,26.745 c 1.079,2.326 1.827,3.821 4.402,3.821 0.831,0 1.827,-0.166 2.658,-0.498 v 8.056995 c -1.827,0.747 -4.984,1.827 -9.054,1.827 -3.987,0 -7.558,-1.661 -9.053,-4.818 -3.572,-7.557995 -2.907,-14.451995 -12.542,-14.451995 -2.243,0 -3.904,0.415 -4.652,0.664 v 17.775005 h -13.456 V 55.786065 h 23.673 c 13.206,0 19.851,7.226 19.851,15.616 0,5.067 -2.326,9.801 -7.06,12.791 2.076,2.409 3.654,5.482 5.233,9.053 z"
             id="Fill-13"
             fill="#3a3b39" />
          <path
             d="m 340.21688,86.519065 -6.395,-16.612 -6.396,16.612 z m -15.526,7.207 -4.574,11.896005 h -13.456 l 19.353,-49.836005 h 15.615 l 19.353,49.836005 h -13.456 l -3.239,-8.472005 h -17.537 z"
             id="Fill-14"
             fill="#3a3b39" />
          <path
             d="m 370.03288,80.705065 c 0,-15.284 7.309,-25.749 25.084,-25.749 8.305,0 13.206,1.661 17.276,2.907 v 11.877 c -3.405,-1.328 -8.971,-3.156 -15.947,-3.156 -8.888,0 -12.958,5.067 -12.958,14.121 0,9.219 2.409,14.452 13.041,14.452 1.993,0 3.987,-0.332 5.232,-0.831 v -5.98 h -7.309 v -10.465 h 20.765 v 25.416005 c -5.98,0 -12.874,3.15599 -21.263,3.15599 -17.858,0 -23.921,-10.382995 -23.921,-25.747995"
             id="Fill-15"
             fill="#3a3b39" />
          <path
             d="m 454.00288,65.837065 c -7.808,0 -9.801,5.731 -9.801,14.868 0,9.219 1.993,14.95 9.801,14.95 7.807,0 9.801,-5.731 9.801,-14.95 0,-9.137 -1.994,-14.868 -9.801,-14.868 z m 0,40.615995 c -17.193,0 -23.257,-10.465995 -23.257,-25.747995 0,-15.284 6.064,-25.749 23.257,-25.749 17.194,0 23.257,10.465 23.257,25.749 0,15.282 -6.063,25.747995 -23.257,25.747995 z"
             id="Fill-16"
             fill="#3a3b39" />
          <polyline
             id="Fill-17"
             fill="#3a3b39"
             points="505.247879 105.622065 492.788879 105.622065 492.788879 55.7860649 505.081879 55.7860649 524.184879 83.8610649 524.184879 55.7860649 536.644879 55.7860649 536.644879 105.622065 524.351879 105.622065 505.247879 77.5480649 505.247879 105.622065" />
          <polyline
             id="Fill-18"
             fill="#3a3b39"
             points="569.366879 105.622065 555.911879 105.622065 555.911879 55.7860649 590.463879 55.7860649 590.463879 67.0830649 569.366879 67.0830649 569.366879 75.2230649 589.301879 75.2230649 589.301879 86.5190649 569.366879 86.5190649 569.366879 105.622065" />
          <polyline
             id="Fill-19"
             fill="#3a3b39"
             points="642.705879 94.3260649 642.705879 105.622065 608.153879 105.622065 608.153879 55.7860649 621.609879 55.7860649 621.609879 94.3260649 642.705879 94.3260649" />
          <polyline
             id="Fill-20"
             fill="#3a3b39"
             points="683.568879 55.7860649 672.714879 77.1590649 661.859879 55.7860649 647.323879 55.7860649 663.840879 88.3070649 667.052879 88.3070649 658.257879 105.622065 672.793879 105.622065 698.104879 55.7860649 683.568879 55.7860649" />
          <path
             d="m 121.00388,42.529065 c -0.652,-0.468 -1.785,-0.583 -2.517,-0.255 l -111.3140009,49.885 c -0.733,0.329 -1.055,1.193 -0.716,1.92 l 4.7559999,10.221005 c 0.339,0.72699 1.273,1.32299 2.075,1.32299 l 114.511001,-0.004 c 0.802,0 1.847,-0.52901 2.322,-1.177 l 25.727,-35.098005 c 0.474,-0.647 0.329,-1.56 -0.323,-2.028 l -34.521,-24.787"
             id="Fill-21"
             fill="#288eb2" />
          <path
             d="m 82.441879,0.0110649 c -0.798,-0.083 -1.918,0.31 -2.489,0.87499999 L 0.55787913,79.411065 c -0.57,0.565 -0.73,1.607 -0.355,2.316 l 3.54299997,6.703 c 0.375,0.709 1.281,1.021 2.013,0.693 l 106.6940009,-47.852 c 0.733,-0.328 1.406,-1.249 1.496,-2.047 l 3.867,-34.0540001 c 0.091,-0.797 -0.488,-1.518 -1.287,-1.601 l -34.087001,-3.558"
             id="Fill-22"
             fill="#288eb2" />
        </g>
      </g>
    </g>
  </g>
</svg>
