<svg xmlns="http://www.w3.org/2000/svg" viewBox="0 0 122.62 45"><defs><style>.cls-1{fill:#ec6608;}.cls-2{fill:#1d1d1b;}</style></defs><title>Artboard 1</title><path d="M107.48 0a15.27 15.27 0 1 0 15.15 15.4s0-.08 0-.13A15.2 15.2 0 0 0 107.5 0zm-.75 21.63h-3.1L100.2 15v6.6h-2.64v-11h3.33l3.18 6.52v-6.47h2.64zM117.4 13l-5.57 6.23h5.54v2.45h-9.12V19.4l5.68-6.33h-5.53v-2.45h9z" class="cls-1"/><path d="M87.16 40c0 .2-.1.3-.34.3h-1c-1.06 0-1.7.53-1.7 1.47s.62 1.5 1.7 1.5a1.6 1.6 0 0 0 1.36-.6v.48h1V40c0-1-.72-1.72-2-1.72a2.94 2.94 0 0 0-1.9.65l.5.78a2.16 2.16 0 0 1 1.32-.48c.6 0 1 .26 1 .77zM86 42.46c-.57 0-.84-.34-.84-.7s.28-.66.84-.66h.63a.85.85 0 0 0 .5-.1v.4a1 1 0 0 1-1 1.06H86m-3.52-1.7a1.47 1.47 0 1 1 0-.12s0 .08 0 .12m-4 0a2.53 2.53 0 1 0 2.52-2.5 2.45 2.45 0 0 0-2.52 2.37s0 .1 0 .13m-.34-2.45h-.37a1.28 1.28 0 0 0-1.28.86v-.77h-1v4.77h1v-2.4c0-1.08.43-1.47 1.1-1.47h.54zm-4.9 1.7c0 .2-.08.3-.33.3h-1c-1.05 0-1.7.53-1.7 1.47s.63 1.5 1.7 1.5a1.6 1.6 0 0 0 1.37-.6v.48h1V40c0-1-.72-1.72-2-1.72a2.94 2.94 0 0 0-1.9.65l.5.78a2.16 2.16 0 0 1 1.32-.48c.6 0 1 .26 1 .77zm-1.13 2.45c-.56 0-.83-.34-.83-.7s.28-.66.84-.66h.64a.86.86 0 0 0 .5-.12v.4a1 1 0 0 1-1 1.07h-.14m-4.8-3.28a1.24 1.24 0 0 1 1.25 1.15H66a1.3 1.3 0 0 1 1.3-1.15m2.43 1.9c0-2-1.16-2.82-2.43-2.82a2.38 2.38 0 0 0-2.42 2.34q0 .08 0 .17a2.5 2.5 0 0 0 4.75 1.08h-1.2a1.3 1.3 0 0 1-1.1.55A1.33 1.33 0 0 1 66 41.1h3.73zm-7.54-4.62v1.93h-.78v.87h.77v2.9c0 .94.7 1 1.26 1 .4 0 .9-.04.9-.04v-.87a4.6 4.6 0 0 1-.64 0c-.24 0-.5-.06-.5-.4v-2.6h1.12v-.87h-1.12v-1.92zm-2.2 4.3a1.47 1.47 0 1 1 0-.1s0 .07 0 .1m-4 0a2.53 2.53 0 1 0 2.54-2.5A2.45 2.45 0 0 0 56 40.63s0 .1 0 .13m-2.52-.9h-1.9l.95-3zm-.25-4.12h-1.37l-2.43 7.42h1.16l.7-2.33h2.44l.75 2.33h1.2zM46 40c0 .2-.1.3-.34.3h-1c-1.06 0-1.7.53-1.7 1.47s.62 1.5 1.7 1.5a1.6 1.6 0 0 0 1.34-.6v.5h1V40c0-1-.72-1.72-2-1.72a2.94 2.94 0 0 0-1.92.63l.5.8a2.16 2.16 0 0 1 1.42-.52c.6 0 1 .26 1 .77zm-1.14 2.45c-.57 0-.84-.34-.84-.7s.28-.66.84-.66h.63a.85.85 0 0 0 .5-.1v.4a1 1 0 0 1-1 1.07h-.15m-6.7-1.7a1.47 1.47 0 1 1 0 .13s-.05-.1-.05-.13zM41 38.4v.7a1.87 1.87 0 0 0-1.6-.84 2.5 2.5 0 0 0 0 5 1.83 1.83 0 0 0 1.6-.8v1.18c0 .44-.3.5-.6.5h-1.8V45h2a1.34 1.34 0 0 0 1.4-1.48v-5.15zm-8.1 0h-1v4.77h1V39.9a1.73 1.73 0 0 1 1.28-.73.9.9 0 0 1 .95 1v3h1V40a1.64 1.64 0 0 0-1.48-1.8h-.28a2 2 0 0 0-1.56.76v-.57zM29.63 40c0 .2-.1.3-.34.3h-1c-1.06 0-1.7.53-1.7 1.47s.62 1.5 1.7 1.5a1.6 1.6 0 0 0 1.36-.6v.48h1V40c0-1-.72-1.72-2-1.72a2.94 2.94 0 0 0-1.9.65l.5.78a2.16 2.16 0 0 1 1.32-.48c.6 0 1 .26 1 .77zm-1.14 2.48c-.57 0-.84-.34-.84-.7s.28-.66.84-.66h.63a.86.86 0 0 0 .5-.1v.4a1 1 0 0 1-1 1.06h-.16m-2.27-4.14h-.37a1.28 1.28 0 0 0-1.3.82v-.77h-1v4.77h1v-2.4c0-1.08.44-1.47 1.1-1.47h.55zm-6 4.93a1.93 1.93 0 0 0 2.15-1.86v-3h-1v2.9a1 1 0 0 1-.93 1.1h-.2a1 1 0 0 1-1.1-1.08v-2.9h-1.06v3a1.94 1.94 0 0 0 2.16 1.86M15.92 40c0 .2-.1.3-.34.3h-1c-1.06 0-1.7.53-1.7 1.47s.62 1.5 1.7 1.5a1.6 1.6 0 0 0 1.36-.6v.48h1V40c0-1-.72-1.72-2-1.72a2.94 2.94 0 0 0-1.9.65l.5.78a2.16 2.16 0 0 1 1.32-.48c.6 0 1 .26 1 .77zm-1.14 2.45c-.57 0-.84-.34-.84-.7s.28-.66.84-.66h.63a.86.86 0 0 0 .5-.12v.4a1 1 0 0 1-1 1.07h-.15m-4.55-6v1.93h-.76v.87h.78v2.9c0 .94.7 1 1.27 1 .38 0 .9-.04.9-.04v-.87a4.6 4.6 0 0 1-.65 0c-.24 0-.5-.06-.5-.4v-2.6h1.12v-.87h-1.1v-1.92zM7.76 40c0 .2-.1.3-.34.3h-1c-1.06 0-1.7.53-1.7 1.47s.62 1.5 1.7 1.5a1.6 1.6 0 0 0 1.36-.6v.48h1V40c0-1-.72-1.72-2-1.72a2.94 2.94 0 0 0-1.92.64l.5.78a2.16 2.16 0 0 1 1.32-.5c.6 0 1 .27 1 .78zm-1.13 2.46c-.57 0-.84-.34-.84-.7s.27-.66.83-.66h.63a.86.86 0 0 0 .5-.1v.4a1 1 0 0 1-1 1.07H6.6M0 35.74v1h2.24v6.43h1.1v-6.45h2.24v-1zM87.88 13.18a11.43 11.43 0 0 0-7.8-2.9c-4.62 0-7.48 2.85-7.48 6 0 2.56 1.35 4.68 4.46 5.7l3.28 1c1.56.5 2.2.9 2.2 1.87 0 .77-.8 1.44-2.1 1.44a9.52 9.52 0 0 1-5.7-2.43l-2.9 3.82a12.38 12.38 0 0 0 8.52 3.05c5.26 0 7.66-3.3 7.66-6.16 0-2.56-1.35-4.72-5.3-6l-3.2-1c-1-.35-1.43-.8-1.43-1.48s.48-1.3 1.93-1.3a7 7 0 0 1 4.76 2zM60 3.4v7.4h-3v4.67h3v10.65c0 3.92 2.82 4.37 5.56 4.37 1.6 0 4.25-.27 4.25-.27v-4.7s-1.13.13-2.52.13c-.84 0-1.8-.17-1.8-1.4v-8.8h4.16V10.8h-4.2V3.4zm-35 0v7.4h-3v4.67h3v10.65c0 3.92 2.82 4.37 5.56 4.37 1.6 0 4.25-.27 4.25-.27v-4.7s-1.13.13-2.52.13c-.85 0-1.83-.17-1.83-1.4v-8.8h4.17V10.8h-4.2V3.4zm-4 .77C18.22 1.72 14.72 0 11.3 0 6.1 0 1.48 3.15 1.48 8.37c0 3.74 2.48 6.45 6.44 8.34l2.07 1c2.82 1.32 4.63 2.46 4.63 4.5 0 1.83-1.56 3.24-4.08 3.24a10.83 10.83 0 0 1-7.2-3.52l-3.24 4.4a14.46 14.46 0 0 0 10.57 4.45c6.48 0 10.23-4.33 10.23-8.8S18 15 13.38 12.84l-2.46-1.15c-2.36-1.1-3.2-2.16-3.2-3.52 0-1.78 1.77-2.8 3.7-2.8s4.4 1.28 6.23 3.06zM48.75 21.87V23.32c0 2.38-1.78 3.4-3.74 3.4-1.67 0-2.73-1-2.73-2.3s1-2.12 2.74-2.12h2.08a2.34 2.34 0 0 0 1.68-.43m8.17 8.62v-4.64s.14 0-1.23 0c-.83 0-1.47-.17-1.47-1.36v-7.04c0-5.14-4-7.18-8.38-7.18a16.4 16.4 0 0 0-8.26 2.4l2.12 4.13a13 13 0 0 1 5.82-1.8c2.1 0 3.2.9 3.2 2.3v.2c0 .72-.42 1.15-1.35 1.15H43.6c-4.3 0-7 2.3-7 6 0 3.18 2.65 6.1 6.73 6.1 2.2 0 4.37-.8 5.4-2.32l.24-.35c.72 2.35 3.04 2.68 5.3 2.68a12.05 12.05 0 0 0 2.64-.26" class="cls-2"/></svg>